<?xml version="1.0" encoding="UTF-8" standalone="no"?>
<svg
   width="48"
   height="48"
   version="1.1"
   viewBox="0 0 12.7 12.7"
   id="svg18"
   sodipodi:docname="org.kde.deafed.svg"
   inkscape:export-filename="org.kde.deafed-256.png"
   inkscape:export-xdpi="512"
   inkscape:export-ydpi="512"
   inkscape:version="1.4 (e7c3feb100, 2024-10-09)"
   xmlns:inkscape="http://www.inkscape.org/namespaces/inkscape"
   xmlns:sodipodi="http://sodipodi.sourceforge.net/DTD/sodipodi-0.dtd"
   xmlns="http://www.w3.org/2000/svg"
   xmlns:svg="http://www.w3.org/2000/svg">
  <sodipodi:namedview
     id="namedview1"
     pagecolor="#505050"
     bordercolor="#ffffff"
     borderopacity="1"
     inkscape:showpageshadow="0"
     inkscape:pageopacity="0"
     inkscape:pagecheckerboard="1"
     inkscape:deskcolor="#505050"
     inkscape:zoom="8.8333333"
     inkscape:cx="19.358491"
     inkscape:cy="17.207547"
     inkscape:window-width="1920"
     inkscape:window-height="1052"
     inkscape:window-x="0"
     inkscape:window-y="0"
     inkscape:window-maximized="1"
     inkscape:current-layer="g6" />
  <defs
     id="defs6">
    <radialGradient
       id="b"
       cx="-12.915"
       cy="3.5248"
       r="11.947"
       gradientTransform="matrix(0.343126, -0.000747, -0.001541, 0.086832, 2.621285, 10.770083)"
       gradientUnits="userSpaceOnUse">
      <stop
         offset="0"
         id="stop1" />
      <stop
         stop-opacity=".88235"
         offset="0.391"
         id="stop2" />
      <stop
         stop-opacity=".31013"
         offset="0.7963"
         id="stop3" />
      <stop
         stop-opacity="0"
         offset="1"
         id="stop4" />
    </radialGradient>
    <linearGradient
       id="paint0_linear_510_1129"
       x1="562.26801"
       y1="456.76001"
       x2="609.52399"
       y2="456.76001"
       gradientUnits="userSpaceOnUse"
       gradientTransform="matrix(0.07190967,0,0,0.08632807,10.083073,2.000077)">
      <stop
         stop-color="#E8E7E4"
         id="stop100" />
      <stop
         offset="0.511"
         stop-color="white"
         id="stop102" />
      <stop
         offset="1"
         stop-color="#C2BFBA"
         id="stop104" />
    </linearGradient>
    <linearGradient
       id="paint2_linear_510_1129"
       x1="482.569"
       y1="655.625"
       x2="79.034401"
       y2="-44.716599"
       gradientUnits="userSpaceOnUse"
       gradientTransform="matrix(0.0651099,0,0,0.0863208,13.867524,1.9936174)">
      <stop
         offset="0.1402"
         stop-color="#FF7A00"
         id="stop112"
         style="stop-color:#cb0000;stop-opacity:1;" />
      <stop
         offset="1"
         stop-color="#FFB800"
         id="stop114"
         style="stop-color:#ff2a01;stop-opacity:1;" />
    </linearGradient>
    <linearGradient
       id="d"
       y1="1050.34"
       y2="1038.36"
       gradientUnits="userSpaceOnUse"
       x2="0"
       gradientTransform="matrix(-6.9806942,0,0,6.982933,48.036845,-7307.5416)">
      <stop
         stop-color="#c61423"
         id="stop1-3"
         offset="0"
         style="stop-color:#ff5c5c;stop-opacity:1;" />
      <stop
         offset="1"
         stop-color="#dc2b41"
         id="stop2-6"
         style="stop-color:#ef9ca8;stop-opacity:1;" />
    </linearGradient>
  </defs>
  <g
     transform="matrix(0.200805, 0, 0, 0.200805, -0.07576, -0.075768)"
     id="g6"
     style="">
    <title
       id="title6">Book</title>
    <path
       d="m 10,13.770565 v 48.227524 h 40.471886 c 1.868509,0 3.372668,-2.099842 3.372668,-4.708158 v -38.81112 c 0,-2.608403 -1.504159,-4.708246 -3.372668,-4.708246 z"
       id="path2"
       style="stroke-width: 0.0783792; fill: rgb(168, 0, 0);" />
    <path
       d="m 10.58644,20.83289 v 40.160766 h 39.929142 c 1.882595,0 3.398163,-2.099842 3.398163,-4.70816 V 25.541052 c 0,-2.608317 -1.515568,-4.708162 -3.398163,-4.708162 z"
       id="path4"
       style="fill:url(#paint0_linear_510_1129);stroke-width:0.0787897"
       fill="url(#paint0_linear_510_1129)" />
    <path
       d="M 10,3.177344 V 59 H 50.308 C 52.183134,59 54,56.398812 54,53.790496 V 7.885547 C 54,5.277205 52.490508,3.177344 50.615374,3.177344 Z"
       id="path6"
       style="stroke-width: 0.078518; fill: rgb(168, 0, 0);" />
    <path
       d="M 13.867522,1.9936173 V 57.988821 h 37.029683 c 1.70959,0 3.085817,-2.778167 3.085817,-5.386359 V 6.7014235 c 0,-2.6081222 -1.376227,-4.7078062 -3.085817,-4.7078062 z"
       fill="url(#paint2_linear_510_1129)"
       fill-opacity="0.990315"
       id="path10-3"
       style="fill:url(#paint2_linear_510_1129);stroke-width:0.0749685"
       inkscape:label="path10" />
    <path
       fill="url(#d)"
       d="m 17.110922,4.1599335 c 5.228674,8.6245745 -3.950616,3.255512 -2.618598,4.1779594 -0.400228,-1.1266805 14.624538,-10.0786606 -0.537282,0.5922269 -0.0911,-2.0121669 0.45247,-2.1876138 0.337064,-5.1440336 1.587005,-0.4905006 4.462311,9.4399618 3.987774,9.8386168 -0.618651,-0.07953 -2.844264,-10.8344846 -3.571137,-6.3516829 -0.810042,0.8388107 3.444077,6.9467419 2.59218,7.5346499 0.112495,-2.672698 -4.373199,-6.6805749 -2.171686,-7.2962911 -0.453666,2.5744131 -0.537491,0.1882515 -0.160782,0.1882515 m 3.635411,3.0765336 -3.456255,-4.9360658 0.970075,4.7524658 -1.216566,-6.487712 -1.163188,2.6558819 0.97462,-3.8451061 c -6.6713942,2.7364485 8.642337,1.2696799 3.285049,3.0407053 L 16.130718,6.2822557 14.606365,10.582056 C 10.905777,8.4026207 13.860801,5.1450848 23.632691,8.4538615 L 17.165743,8.1064095 C 13.557201,8.0365736 6.4454002,1.1719546 18.044583,2.04244 m -4.202296,-0.061479 c -1.753045,0 10.752804,2.6040055 6.867689,5.0390082 C 18.16501,7.9432498 22.053258,11.207199 18.068582,10.666515 18.807193,8.4884461 15.144697,9.5050487 15.300184,7.0330152 16.355608,7.4947931 6.9347493,4.3416342 11.004659,5.6822556 m 6.177949,-2.2084939 c 2.122366,0.838816 0.02575,8.1528113 1.369787,6.8522183 -3.245093,1.677623 2.275467,-3.0665525 -0.670533,-2.7107512 1.355986,1.3215663 -0.122985,-0.5208091 -0.233774,-2.8699718 0.349602,4.2752333 -0.536326,9.18403 1.93319,4.9924224 m -0.0372,-2.2080409 c 1.745657,-0.838816 -8.089908,-4.859672 -6.287623,-5.5287557 10.575202,-0.5099696 3.51e-4,4.8737626 0.398735,5.3259865 l 3.680275,1.8385579 c 0.551512,3.9136368 2.795531,-0.5385616 4.996677,1.9950888 L 18.995953,14.5133 13.978943,9.5828286 C 2.4389124,2.6263181 31.712877,11.76807 18.4075,6.3711359 m 3.399298,-1.4508678 c -2.458384,0.371567 -2.663117,6.9953989 -1.385271,7.8317499 2.95949,8.390585 6.408932,14.040893 9.703275,13.797365 C 25.035566,28.979727 14.074144,17.002656 10.378475,5.7364924 M 30.124802,26.549383 C 37.887909,21.9396 21.455623,13.536712 17.764882,11.098984 16.935142,8.7522783 14.922797,2.2898342 18.26158,2.0071573 29.850851,9.2170116 36.903057,19.733106 33.015341,24.679884 c -0.93561,1.173361 -1.927849,1.761265 -2.910238,1.844896 M 16.822278,10.259271 C 16.283086,8.0995094 15.977092,3.0181009 14.684461,2.2629223 c 3.095402,4.9302731 -1.852186,2.4455204 -2.004774,1.73331 0,0 1.64538,-1.2712203 2.482515,-1.8566636 4.994303,6.1253858 4.464882,-4.0778158 7.229858,6.1650486"
       id="path2-7"
       style="fill:url(#d);stroke-width:2.461"
       inkscape:label="path3"
       sodipodi:nodetypes="ccccccccccccccccccccccccccccccccccccccccccccccccccccc" />
    <path
       d="M 14,2.000077 H 10 V 57.321443 L 14,58 Z"
       id="path12"
       style="stroke-width: 0.0850431; fill: rgb(168, 0, 0);" />
    <path
       d="M 10,57.362326 V 62 h 5 v -1 h -4 v -3 h 3 v -0.637674 z"
       id="path14"
       style="stroke-width: 0.075493; fill: rgb(168, 0, 0);" />
    <line
       x1="11.39"
       y1="2.742"
       x2="11.39"
       y2="57.062"
       stroke="#acacac"
       stroke-width="0.510259"
       stroke-linecap="round"
       stroke-dasharray="40, 40"
       id="line16"
       style="stroke-width:0.51;stroke-dasharray:2.55, 2.55;stroke-dashoffset:0" />
  </g>
  <g
     transform="matrix(1.02508, 0, 0, 1.02508, -1.61574, 0.804606)"
     style=""
     id="g18">
    <title
       id="title7">Pen</title>
    <rect
       transform="matrix(0.496961, -0.867773, 0.893462, 0.452103, 0.762011, 0.56552)"
       x="-8.434"
       y="9.5"
       width="10.658"
       height="2.645"
       fill="url(#b)"
       opacity=".43346"
       stroke-width=".1601"
       id="rect8"
       style="">
      <title
         id="title8">Shadow</title>
    </rect>
    <path
       d="m11.156 1.592-.295.016-3.15 7.286-.038 1.425 1.01-1.005 3.15-7.286-.191-.226Z"
       fill="#bdc3c7"
       id="path8" />
    <path
       d="M10.86 1.608 7.713 8.894l.19.227 3.149-7.286Z"
       fill-opacity=".2"
       id="path9" />
    <path
       d="m11.832 2.028-.295.016-3.149 7.287.295-.017Z"
       fill="#fff"
       fill-opacity=".2"
       id="path11" />
    <path
       d="m7.902 9.12.486.21-.715.989Z"
       fill-opacity=".2"
       id="path13" />
    <path
       d="m7.712 8.894.19.227-.23 1.198Z"
       fill-opacity=".4"
       id="path15" />
    <path
       d="m11.156 1.592-.295.016.19.227.486.21.295-.017-.19-.226z"
       fill-opacity=".2"
       id="path16" />
    <path
       d="m7.922 8.409-.105.243.19.226.486.21.295-.017.105-.242-.295.016-.486-.21Zm2.781-6.437-.105.243.19.227.486.21.296-.017.105-.243-.296.017-.485-.21zm-.21.486-.105.243.19.227.486.21.296-.017.105-.243-.296.017-.485-.21z"
       fill="#fff"
       fill-opacity=".4"
       id="path17" />
    <path
       d="m8.279 9.716-.193.033-.28-.121-.11-.161-.023.852Z"
       fill-opacity=".266"
       id="path18" />
  </g>
</svg>
