<?xml version="1.0" encoding="UTF-8" standalone="no"?>
<svg
   width="32"
   height="32"
   version="1.1"
   id="svg7"
   sodipodi:docname="org.kde.deafed.svg"
   inkscape:version="1.4 (e7c3feb100, 2024-10-09)"
   inkscape:export-filename="logo.png"
   inkscape:export-xdpi="1536"
   inkscape:export-ydpi="1536"
   xmlns:inkscape="http://www.inkscape.org/namespaces/inkscape"
   xmlns:sodipodi="http://sodipodi.sourceforge.net/DTD/sodipodi-0.dtd"
   xmlns="http://www.w3.org/2000/svg"
   xmlns:svg="http://www.w3.org/2000/svg">
  <sodipodi:namedview
     id="namedview7"
     pagecolor="#ffffff"
     bordercolor="#666666"
     borderopacity="1.0"
     inkscape:showpageshadow="2"
     inkscape:pageopacity="0.0"
     inkscape:pagecheckerboard="0"
     inkscape:deskcolor="#d1d1d1"
     inkscape:zoom="36.75"
     inkscape:cx="10.829932"
     inkscape:cy="15.510204"
     inkscape:window-width="2560"
     inkscape:window-height="1404"
     inkscape:window-x="0"
     inkscape:window-y="0"
     inkscape:window-maximized="1"
     inkscape:current-layer="svg7" />
  <defs
     id="defs2">
    <linearGradient
       id="a"
       y1="392.36"
       y2="365.2"
       x2="0"
       gradientUnits="userSpaceOnUse"
       gradientTransform="translate(-7.4013609,-362.74775)">
      <stop
         stop-color="#ffffff"
         stop-opacity="0"
         id="stop1" />
      <stop
         offset="1"
         stop-color="#ffffff"
         stop-opacity=".2"
         id="stop2" />
    </linearGradient>
  </defs>
  <g
     color-rendering="auto"
     color-interpolation-filters="linearRGB"
     shape-rendering="auto"
     image-rendering="auto"
     text-rendering="auto"
     color-interpolation="sRGB"
     color="#000000"
     id="g3"
     transform="translate(-384.57,-515.8)">
    <path
       fill="#da2c2c"
       d="m 389.57,517.8 v 28 h 22 v -28 h -14 z"
       id="path2" />
    <rect
       opacity="0.25"
       x="389.57001"
       y="544.79999"
       width="22"
       height="1"
       id="rect2" />
    <rect
       opacity="0.5"
       x="389.57001"
       y="517.79999"
       width="22"
       fill="#ffffff"
       height="1"
       id="rect3" />
  </g>
  <path
     opacity="0.8"
     fill="#ffffff"
     d="m 12.962041,9.0748299 c -0.162,0.01 -0.336,0 -0.527,0.132 -1.705,0.734 -0.561,2.7470001 1.612,4.2790001 0.013,-0.289 0.133,-0.917 0.13,-1.194 -1.854,-1.271 -2.939,-2.5090001 -1.757,-2.9990001 1.246,-0.517 1.633,0.8950001 1.655,2.9440001 0.116,0.12 0.92,0.654 1.042,0.739 -0.045,-1.869 -1.039,-3.7770001 -1.993,-3.8850001 -0.051,-0.01 -0.107,-0.01 -0.161,-0.01 m 1.736,3.2520001 -0.388,-0.151 -0.322,0.217 -0.065,0.682 0.406,0.312 0.169,0.226 c 1.251,0.83 2.317,1.469 3.718,1.997 l 0.874,0.13 h 0.575 c 0.53,-0.313 0.214,-0.433 2.141,-0.673 l -2.171,0.168 c -1.675,-0.649 -3.385,-1.582 -4.94,-2.6 m 3.822,2.72 c 0.251,0 2.211,-0.17 2.99,-0.242 0.772,-0.12 1.719,-0.156 1.54,0.746 0.204,-0.481 -0.261,-1.298 -0.922,-1.442 -1.023,-0.229 -2.646,0.398 -3.229,0.591 m 0.94,0.25 c -0.304,0.12 -0.999,0.207 -1.327,0.316 0.465,0.241 2.802,1.103 3.766,0.923 0.154,0 0.805,-0.468 0.821,-0.805 -0.05,0.613 -2.906,0.156 -3.26,-0.445 m 0.635,0.011 c -0.25,-0.12 -1.422,-0.114 -1.681,-0.211 -1.468,0.513 -3.442,1.719 -4.855,2.532 l -0.409,0.12 c -0.079,0.561 -0.425,0.755 -0.74,1.118 l 0.478,0.481 0.374,-0.613 c 1.654,-0.998 4.924,-2.611 6.832,-3.386 m -6.832,3.386 c -0.202,0.12 -0.395,0.241 -0.578,0.361 -0.424,1.204 -0.919,2.01 -1.391,1.98 0.729,0.349 2.301,-1.37 2.83,-2.986 m -2.83,2.986 c -1.113,-0.661 1.243,-1.867 1.77,-2.217 0.119,-0.337 -0.206,-0.895 -0.1,-1.292 -1.661,1.034 -2.643,2.531 -2.086,3.24 0.134,0.168 0.276,0.253 0.417,0.265 m 1.617,-2.52 c 0.077,-0.31 1.103,-1.015 1.289,-1.123 0.248,-1.954 0.26,-2.147 0.471,-3.666 -0.126,-0.12 -0.902,-0.725 -1.022,-0.809 -0.149,1.624 -0.429,3.824 -0.826,5.293"
     id="path5"
     style="color:#000000;color-interpolation:sRGB;color-interpolation-filters:linearRGB;color-rendering:auto;image-rendering:auto;shape-rendering:auto;text-rendering:auto" />
  <g
     id="g5"
     transform="matrix(0.62207105,0,0,0.62207105,1.0702948,0.88897741)">
    <path
       fill="#4f4f4f"
       d="m 24,5 c -9.972,0 -18,8.03 -18,18.005 v 12.003 c 0,0 0,6.0015 6,6.0015 h 0.002 v -15.004 h -0.002 v -3.0008 c 0,-6.6497 5.352,-12.003 12,-12.003 6.648,0 12,5.3534 12,12.003 v 1.9907 h 0.002 v 16.014 c 0.011,-0.002 5.998,-0.008 5.998,-6.003 v -12.003 c 0,-9.975 -8.028,-18.005 -18,-18.005 z"
       id="path1" />
    <path
       fill="#ffffff"
       opacity="0.1"
       d="m 24,5 c -9.972,0 -18,8.03 -18,18.005 v 0.99048 c 0,-9.9746 8.028,-18.005 18,-18.005 9.972,0 18,8.0301 18,18.005 v -0.99 c 0,-9.975 -8.028,-18.005 -18,-18.005 z m -12,21.005 v 0.99048 h 0.002 v -0.99048 z"
       id="path2-3" />
    <path
       fill="#8e8e8e"
       d="m 12.002,27.996 v 15.004 h 6 v -15.004 z m 18,0 v 15.004 h 6 v -15.004 z"
       id="path3" />
    <path
       fill="#ffffff"
       opacity="0.1"
       d="m 12.002,27.996 v 1.0003 h 6 v -1.0003 z m 18,0 v 1.0003 h 6 v -1.0003 z"
       id="path4" />
    <path
       opacity="0.2"
       d="m 24,11.002 c -6.648,0 -12,5.3522 -12,12.002 v 1 c 0,-6.6497 5.352,-12.002 12,-12.002 6.648,0 12,5.3522 12,12.002 v -1 c 0,-6.65 -5.352,-12.002 -12,-12.002 z m 12,13.994 v 1 h 0.002 v -1 z m -30,10.012 v 1 c 0,0 0,6.002 6,6.002 h 0.002 v -1 h -0.002 c -6,0 -6,-6.002 -6,-6.002 z m 36,0 c 0,5.9955 -5.9868,6.0019 -5.998,6.002 v 1 c 0.011,0 5.998,-0.007 5.998,-6.002 z m -29.998,7.992 v 1 h 6 v -1 z m 18,0 v 1 h 6 v -1 z"
       id="path5-6" />
  </g>
</svg>
